<?xml version="1.0" encoding="utf-8"?>
<!-- Generator: Adobe Illustrator 24.2.3, SVG Export Plug-In . SVG Version: 6.00 Build 0)  -->
<svg version="1.1" id="Calque_1" xmlns="http://www.w3.org/2000/svg" xmlns:xlink="http://www.w3.org/1999/xlink" x="0px" y="0px"
	 viewBox="0 0 140.1 144" style="enable-background:new 0 0 140.1 144;" xml:space="preserve">
<style type="text/css">
	.st0{fill:#FFFFFF;}
</style>
<g>
	<g>
		<path class="st0" d="M123.3,66.2L70,119.4L16.8,66.2c-1-1-2.6-0.9-3.5,0.1c-0.9,1-0.9,2.5,0,3.5l55,55c1,1,2.6,1,3.5,0l55-55
			c1-1,0.9-2.6-0.1-3.5C125.8,65.2,124.2,65.2,123.3,66.2L123.3,66.2z"/>
		<path class="st0" d="M123.3,21.2L70,74.4L16.8,21.2c-1-1-2.6-0.9-3.5,0.1c-0.9,1-0.9,2.5,0,3.5l55,55c1,1,2.6,1,3.5,0l55-55
			c1-1,1-2.5,0.1-3.5C125.9,20.2,124.3,20.1,123.3,21.2C123.3,21.1,123.3,21.1,123.3,21.2L123.3,21.2z"/>
	</g>
	<path class="st0" d="M70,125.4c-0.7,0-1.3-0.3-1.8-0.7l-55-55c-1-1-0.9-2.6,0.1-3.5c1-0.9,2.5-0.9,3.5,0L70,119.4l53.2-53.2
		c1-1,2.6-0.9,3.5,0.1c0.9,1,0.9,2.5,0,3.5l-55,55C71.3,125.1,70.7,125.4,70,125.4z"/>
	<path class="st0" d="M70,80.4c-0.7,0-1.3-0.3-1.8-0.7l-55-55c-1-1-0.9-2.6,0.1-3.5c1-0.9,2.5-0.9,3.5,0L70,74.4l53.2-53.2
		c1-1,2.5-1,3.5-0.1c1,1,1,2.5,0.1,3.5c0,0,0,0-0.1,0.1l-55,55C71.3,80.2,70.7,80.4,70,80.4z"/>
	<g>
	</g>
	<g>
	</g>
	<g>
	</g>
	<g>
	</g>
	<g>
	</g>
	<g>
	</g>
	<g>
	</g>
	<g>
	</g>
	<g>
	</g>
	<g>
	</g>
	<g>
	</g>
	<g>
	</g>
	<g>
	</g>
	<g>
	</g>
	<g>
	</g>
</g>
</svg>
