<?xml version="1.0" encoding="utf-8"?>
<!-- Generator: Adobe Illustrator 24.2.3, SVG Export Plug-In . SVG Version: 6.00 Build 0)  -->
<svg version="1.1" id="Calque_1" xmlns="http://www.w3.org/2000/svg" xmlns:xlink="http://www.w3.org/1999/xlink" x="0px" y="0px"
	 viewBox="0 0 1190.6 144" style="enable-background:new 0 0 1190.6 144;" xml:space="preserve">
<style type="text/css">
	.st0{fill:none;stroke:#FFFFFF;stroke-width:0.75;stroke-miterlimit:10;}
</style>
<g>
	<path class="st0" d="M348.5,41.5V16.1H364c10.4,0,14.6,2.3,14.6,8.1c0,5.8-4.2,8.1-14.6,8.1h-9.6v9.1H348.5z M354.5,20.4V28h10.6
		c5,0,7-1.1,7-3.8s-2-3.8-7-3.8H354.5z"/>
	<path class="st0" d="M380.4,32.9c0-6.1,5.8-10.1,14.1-10.1c8.1,0,14.1,4,14.1,10.1c0,5.8-6,9.6-14.1,9.6
		C386.2,42.5,380.4,38.7,380.4,32.9z M402.5,32.9c0-3.4-3.2-5.6-8-5.6c-4.8,0-8,2.2-8,5.6c0,3.3,3.2,5.5,8,5.5
		C399.3,38.4,402.5,36.2,402.5,32.9z"/>
	<path class="st0" d="M437.9,41.5h-5.8v-2.3c-1.7,1.9-4,3.4-8.7,3.4c-9.7,0-11.1-4.9-11.1-11.7v-6.6h5.8v6.6c0,5.1,1.7,7.5,6.2,7.5
		c4.1,0,6.2-1.2,7.8-2.9V24.2h5.8V41.5z"/>
	<path class="st0" d="M460.5,23.3v5.1c-2-0.4-4.7-0.4-6.8,0.1c-1.5,0.4-3.9,1.6-4.7,3.1l0-0.3v10.2h-5.8V24.2h5.8v3.2
		c0.9-1.4,2.5-2.7,3.6-3.2C454.8,23,458.1,22.6,460.5,23.3z"/>
	<path class="st0" d="M489.5,24.1v24.3h-5.8v-9.1c-1.5,1.7-5,3.2-8.9,3.2c-7.1,0-11.9-3.8-11.8-9.4c0-5.8,4.7-9.6,11.8-9.6
		c3.7,0,7.2,1.2,8.9,3.3l0.3-2.8H489.5z M483.7,36.1v-6c-1.1-1.4-4.3-2.4-8-2.4c-4,0-6.7,2.2-6.7,5.4c0,3.2,2.7,5.4,6.7,5.4
		C479.3,38.5,482.4,37.6,483.7,36.1z"/>
	<path class="st0" d="M520.2,41.5h-5.8v-2.3c-1.7,1.9-4,3.4-8.7,3.4c-9.7,0-11.1-4.9-11.1-11.7v-6.6h5.8v6.6c0,5.1,1.7,7.5,6.2,7.5
		c4.1,0,6.2-1.2,7.8-2.9V24.2h5.8V41.5z"/>
	<path class="st0" d="M522.8,32.9c0-6.1,5.8-10.1,14.1-10.1c8.1,0,14.1,4,14.1,10.1c0,5.8-6,9.6-14.1,9.6
		C528.6,42.5,522.8,38.7,522.8,32.9z M544.9,32.9c0-3.4-3.2-5.6-8-5.6c-4.8,0-8,2.2-8,5.6c0,3.3,3.2,5.5,8,5.5
		C541.7,38.4,544.9,36.2,544.9,32.9z"/>
	<path class="st0" d="M558.1,21.3c-1.9,0-3.1-1-3.1-2.8c0-1.9,1.2-2.8,3.1-2.8c1.9,0,3.1,1,3.1,2.8C561.2,20.3,560,21.3,558.1,21.3z
		 M555.2,24.2v17.3h5.8V24.2H555.2z"/>
	<path class="st0" d="M605.4,34.9v6.6h-5.8v-6.6c0-5.1-2.1-7.5-6.6-7.5c-3.4,0-6.6,1.4-8.9,3.3v10.8h-5.8V24.2h5.8v2.7
		c2.3-2.2,5.7-4.1,9.8-4.1C603.6,22.9,605.4,28.1,605.4,34.9z"/>
	<path class="st0" d="M609.2,32.9c0-6.1,5.8-10.1,14.1-10.1c8.1,0,14.1,4,14.1,10.1c0,5.8-6,9.6-14.1,9.6
		C614.9,42.5,609.2,38.7,609.2,32.9z M631.3,32.9c0-3.4-3.2-5.6-8-5.6c-4.8,0-8,2.2-8,5.6c0,3.3,3.2,5.5,8,5.5
		C628.1,38.4,631.3,36.2,631.3,32.9z"/>
	<path class="st0" d="M652,42.7c-4.8,0-8.4-3.2-8.4-7.3V27h-4.4v-4.3h4.6l0.6-4.9h5v4.9h8.9V27h-8.9v7.7c0,2.6,1.1,3.7,3.8,3.7
		c1.6,0,3.9-0.6,5.2-1v4.3C656.7,42.3,653.9,42.7,652,42.7z"/>
	<path class="st0" d="M679.7,23.3v5.1c-2-0.4-4.7-0.4-6.8,0.1c-1.5,0.4-3.9,1.6-4.7,3.1l0-0.3v10.2h-5.8V24.2h5.8v3.2
		c0.9-1.4,2.5-2.7,3.6-3.2C674,23,677.3,22.6,679.7,23.3z"/>
	<path class="st0" d="M688.1,34.3c0,2.9,3.6,3.7,8.4,3.7c3.9,0,8-0.7,9.6-1.8l1.7,3.9c-2.4,1.4-5.7,2.2-11.3,2.2
		c-8.7,0-14.4-3.6-14.4-9.1c0-5.9,5.2-10.4,13.7-10.4c9.8,0,14,4.9,14,11.6H688.1z M703.7,31.1c0-2.5-3.5-3.7-7.8-3.7
		c-4.3,0-7.8,1.2-7.8,3.7H703.7z"/>
	<path class="st0" d="M743.8,16.9l-1.1,4.2l0,0.1c-2-2.5-5.2-2.9-7.4-1.7c-2,1.1-2.2,3.1-2.2,4.3h7.9v4.1h-7.9L732.9,40v1.4h-5.6
		v-1.4l0-12.1h-3.1v-4.1h3.1c0.1-3.5,1.7-6.8,5.2-8.3C736.2,14,740.8,14.5,743.8,16.9z"/>
	<path class="st0" d="M770.7,41.5h-5.8v-2.3c-1.7,1.9-4,3.4-8.7,3.4c-9.7,0-11.1-4.9-11.1-11.7v-6.6h5.8v6.6c0,5.1,1.7,7.5,6.2,7.5
		c4.1,0,6.2-1.2,7.8-2.9V24.2h5.8V41.5z"/>
	<path class="st0" d="M786.9,42.7c-4.8,0-8.4-3.2-8.4-7.3V27h-4.4v-4.3h4.6l0.6-4.9h5v4.9h8.9V27h-8.9v7.7c0,2.6,1.1,3.7,3.8,3.7
		c1.6,0,3.9-0.6,5.2-1v4.3C791.6,42.3,788.8,42.7,786.9,42.7z"/>
	<path class="st0" d="M822.3,41.5h-5.8v-2.3c-1.7,1.9-4,3.4-8.7,3.4c-9.7,0-11.1-4.9-11.1-11.7v-6.6h5.8v6.6c0,5.1,1.7,7.5,6.2,7.5
		c4.1,0,6.2-1.2,7.8-2.9V24.2h5.8V41.5z"/>
	<path class="st0" d="M845,23.3v5.1c-2-0.4-4.7-0.4-6.8,0.1c-1.5,0.4-3.9,1.6-4.7,3.1l0-0.3v10.2h-5.8V24.2h5.8v3.2
		c0.9-1.4,2.5-2.7,3.6-3.2C839.2,23,842.5,22.6,845,23.3z"/>
	<path class="st0" d="M305.4,57v25.9h-5.8v-2.3c-1.7,2.1-5.3,3.3-8.9,3.3c-7.1,0-11.8-3.7-11.8-9.6c0-5.6,4.7-9.4,11.8-9.4
		c3.9,0,7.4,1.4,8.9,3.2V57H305.4z M299.6,77.4v-6c-1.2-1.5-4.4-2.4-8-2.4c-4,0-6.7,2.1-6.7,5.4c0,3.2,2.7,5.4,6.7,5.4
		C295.4,79.8,298.5,78.8,299.6,77.4z"/>
	<path class="st0" d="M315.6,75.7c0,2.9,3.6,3.7,8.4,3.7c3.9,0,8-0.7,9.6-1.8l1.7,3.9c-2.4,1.4-5.7,2.2-11.3,2.2
		c-8.7,0-14.4-3.6-14.4-9.1c0-5.9,5.2-10.4,13.7-10.4c9.8,0,14,4.9,14,11.6H315.6z M331.2,72.5c0-2.5-3.5-3.7-7.8-3.7
		c-4.3,0-7.8,1.2-7.8,3.7H331.2z M321.9,53.1h7.1l0.1,0.1l-5.9,7.2h-5.4l-0.1-0.1L321.9,53.1z"/>
	<path class="st0" d="M355.4,83.9c-3.9,0-7.4-1.5-8.9-3.2v9h-5.8V65.6h5.8v2.7c1.7-2.1,5.3-3.3,8.9-3.3c7.1,0,11.8,3.7,11.8,9.6
		C367.3,80.2,362.5,83.9,355.4,83.9z M361.2,74.6c0-3.2-2.7-5.4-6.7-5.4c-3.6,0-6.9,0.9-8,2.4v6c1.2,1.5,4.5,2.4,8,2.4
		C358.6,80,361.2,77.8,361.2,74.6z"/>
	<path class="st0" d="M376.2,75.7c0,2.9,3.6,3.7,8.4,3.7c3.9,0,8-0.7,9.6-1.8l1.7,3.9c-2.4,1.4-5.7,2.2-11.3,2.2
		c-8.7,0-14.4-3.6-14.4-9.1c0-5.9,5.2-10.4,13.7-10.4c9.8,0,14,4.9,14,11.6H376.2z M391.8,72.5c0-2.5-3.5-3.7-7.8-3.7
		c-4.3,0-7.8,1.2-7.8,3.7H391.8z"/>
	<path class="st0" d="M428.8,76.3v6.6H423v-6.6c0-5.1-2.1-7.5-6.6-7.5c-3.4,0-6.6,1.4-8.9,3.3v10.8h-5.8V65.6h5.8v2.7
		c2.3-2.2,5.7-4.1,9.8-4.1C427,64.3,428.8,69.5,428.8,76.3z"/>
	<path class="st0" d="M459.1,57v25.9h-5.8v-2.3c-1.7,2.1-5.3,3.3-8.9,3.3c-7.1,0-11.8-3.7-11.8-9.6c0-5.6,4.7-9.4,11.8-9.4
		c3.9,0,7.4,1.4,8.9,3.2V57H459.1z M453.3,77.4v-6c-1.2-1.5-4.4-2.4-8-2.4c-4,0-6.7,2.1-6.7,5.4c0,3.2,2.7,5.4,6.7,5.4
		C449,79.8,452.2,78.8,453.3,77.4z"/>
	<path class="st0" d="M501.5,57v25.9h-5.8v-2.3c-1.7,2.1-5.3,3.3-8.9,3.3c-7.1,0-11.8-3.7-11.8-9.6c0-5.6,4.7-9.4,11.8-9.4
		c3.9,0,7.4,1.4,8.9,3.2V57H501.5z M495.7,77.4v-6c-1.2-1.5-4.4-2.4-8-2.4c-4,0-6.7,2.1-6.7,5.4c0,3.2,2.7,5.4,6.7,5.4
		C491.4,79.8,494.6,78.8,495.7,77.4z"/>
	<path class="st0" d="M511.6,75.7c0,2.9,3.6,3.7,8.4,3.7c3.9,0,8-0.7,9.6-1.8l1.7,3.9c-2.4,1.4-5.7,2.2-11.3,2.2
		c-8.7,0-14.4-3.6-14.4-9.1c0-5.9,5.2-10.4,13.7-10.4c9.8,0,14,4.9,14,11.6H511.6z M527.2,72.5c0-2.5-3.5-3.7-7.8-3.7
		c-4.3,0-7.8,1.2-7.8,3.7H527.2z"/>
	<path class="st0" d="M560.7,66.7l-1.9,3.7c-1.6-0.8-4.2-1.9-9.4-2.1c-3.1-0.2-7.2-0.2-7.2,1.6c0,1.8,4,1.5,10.3,1.9
		c4.9,0.3,9.2,0.9,9.3,5.6c0,4.5-5.7,6.4-12.7,6.4c-5.1,0-10.3-1.1-13.5-3.2l2.1-3.9c2.8,1.8,6.7,2.9,11.1,2.9
		c3.8,0,7.2-0.3,7.2-1.8c0-1.8-1.9-1.3-9.7-1.8c-6.2-0.4-9.2-3-9.2-5.8c0-3.7,4.3-6.4,12.5-6C555.7,64.5,558.8,65.8,560.7,66.7z"/>
	<path class="st0" d="M604.2,74.3c0,5.8-4.7,9.6-11.8,9.6c-3.7,0-7.2-1.2-8.9-3.3l-0.3,2.3h-5.5V57h5.8v11.1c1.5-1.7,5-3.2,8.9-3.2
		C599.4,65,604.2,68.7,604.2,74.3z M598.2,74.3c0-3.2-2.7-5.4-6.7-5.4c-3.6,0-6.8,1-8,2.4v6c1.1,1.4,4.3,2.4,8,2.4
		C595.5,79.7,598.2,77.6,598.2,74.3z"/>
	<path class="st0" d="M611.3,62.7c-1.9,0-3.1-1-3.1-2.8c0-1.9,1.2-2.8,3.1-2.8c1.9,0,3.1,1,3.1,2.8
		C614.4,61.7,613.2,62.7,611.3,62.7z M608.4,65.6v17.3h5.8V65.6H608.4z"/>
	<path class="st0" d="M646.3,74.3c0,5.8-4.7,9.6-11.8,9.6c-3.7,0-7.2-1.2-8.9-3.3l-0.3,2.3h-5.5V57h5.8v11.1c1.5-1.7,5-3.2,8.9-3.2
		C641.5,65,646.3,68.7,646.3,74.3z M640.3,74.3c0-3.2-2.7-5.4-6.7-5.4c-3.6,0-6.8,1-8,2.4v6c1.1,1.4,4.3,2.4,8,2.4
		C637.6,79.7,640.3,77.6,640.3,74.3z"/>
	<path class="st0" d="M654.7,57v25.9h-5.8V57H654.7z"/>
	<path class="st0" d="M663.1,62.7c-1.9,0-3.1-1-3.1-2.8c0-1.9,1.2-2.8,3.1-2.8c1.9,0,3.1,1,3.1,2.8
		C666.1,61.7,664.9,62.7,663.1,62.7z M660.2,65.6v17.3h5.8V65.6H660.2z"/>
	<path class="st0" d="M670.2,74.3c0-6.1,5.8-10.1,14.1-10.1c8.1,0,14.1,4,14.1,10.1c0,5.8-6,9.6-14.1,9.6
		C676,83.9,670.2,80.1,670.2,74.3z M692.3,74.3c0-3.4-3.2-5.6-8-5.6c-4.8,0-8,2.2-8,5.6c0,3.3,3.2,5.5,8,5.5
		C689.1,79.8,692.3,77.6,692.3,74.3z"/>
	<path class="st0" d="M713,84.1c-4.8,0-8.4-3.2-8.4-7.3v-8.4h-4.4v-4.3h4.6l0.6-4.9h5v4.9h8.9v4.3h-8.9v7.7c0,2.6,1.1,3.7,3.8,3.7
		c1.6,0,3.9-0.6,5.2-1v4.3C717.7,83.7,714.9,84.1,713,84.1z"/>
	<path class="st0" d="M750.4,76.3v6.6h-5.8v-6.6c0-5.1-2.1-7.5-6.6-7.5c-4.3,0-6.9,1.3-8.9,3.1v11h-5.8V57h5.8v11.1
		c2-2,4.9-3.8,9.8-3.8C748.7,64.3,750.4,69.5,750.4,76.3z"/>
	<path class="st0" d="M760.3,75.7c0,2.9,3.6,3.7,8.4,3.7c3.9,0,8-0.7,9.6-1.8l1.7,3.9c-2.4,1.4-5.7,2.2-11.3,2.2
		c-8.7,0-14.4-3.6-14.4-9.1c0-5.9,5.2-10.4,13.7-10.4c9.8,0,14,4.9,14,11.6H760.3z M775.9,72.5c0-2.5-3.5-3.7-7.8-3.7
		c-4.3,0-7.8,1.2-7.8,3.7H775.9z M768.3,60.5l-5.9-7.2l0.1-0.1h7.1l4.2,7.2l-0.1,0.1H768.3z"/>
	<path class="st0" d="M811.3,65.5v24.3h-5.8v-9.1c-1.5,1.7-5,3.2-8.9,3.2c-7.1,0-11.9-3.8-11.8-9.4c0-5.8,4.7-9.6,11.8-9.6
		c3.7,0,7.2,1.2,8.9,3.3l0.3-2.8H811.3z M805.5,77.5v-6c-1.1-1.4-4.3-2.4-8-2.4c-4,0-6.7,2.2-6.7,5.4c0,3.2,2.7,5.4,6.7,5.4
		C801,80,804.2,79,805.5,77.5z"/>
	<path class="st0" d="M842,82.9h-5.8v-2.3c-1.7,1.9-4,3.4-8.7,3.4c-9.7,0-11.1-4.9-11.1-11.7v-6.6h5.8v6.6c0,5.1,1.7,7.5,6.2,7.5
		c4.1,0,6.2-1.2,7.8-2.9V65.6h5.8V82.9z"/>
	<path class="st0" d="M852.1,75.7c0,2.9,3.6,3.7,8.4,3.7c3.9,0,8-0.7,9.6-1.8l1.7,3.9c-2.4,1.4-5.7,2.2-11.3,2.2
		c-8.7,0-14.4-3.6-14.4-9.1c0-5.9,5.2-10.4,13.7-10.4c9.8,0,14,4.9,14,11.6H852.1z M867.8,72.5c0-2.5-3.5-3.7-7.8-3.7
		c-4.3,0-7.8,1.2-7.8,3.7H867.8z"/>
	<path class="st0" d="M901.2,66.7l-1.9,3.7c-1.6-0.8-4.2-1.9-9.4-2.1c-3.1-0.2-7.2-0.2-7.2,1.6c0,1.8,4,1.5,10.3,1.9
		c4.9,0.3,9.2,0.9,9.3,5.6c0,4.5-5.7,6.4-12.7,6.4c-5.1,0-10.3-1.1-13.5-3.2l2.1-3.9c2.8,1.8,6.7,2.9,11.1,2.9
		c3.8,0,7.2-0.3,7.2-1.8c0-1.8-1.9-1.3-9.7-1.8c-6.2-0.4-9.2-3-9.2-5.8c0-3.7,4.3-6.4,12.5-6C896.3,64.5,899.3,65.8,901.2,66.7z"/>
	<path class="st0" d="M908,82.9h-1.9v-6.1h6.9v5l-4.6,7.2h-2.3L908,82.9z"/>
	<path class="st0" d="M245.4,98.4v25.9h-5.8V122c-1.7,2.1-5.3,3.3-8.9,3.3c-7.1,0-11.8-3.7-11.8-9.6c0-5.6,4.7-9.4,11.8-9.4
		c3.9,0,7.4,1.4,8.9,3.2V98.4H245.4z M239.6,118.8v-6c-1.2-1.5-4.4-2.4-8-2.4c-4,0-6.7,2.1-6.7,5.4c0,3.2,2.7,5.4,6.7,5.4
		C235.3,121.2,238.5,120.3,239.6,118.8z"/>
	<path class="st0" d="M255.5,117.2c0,2.9,3.6,3.7,8.3,3.7c3.9,0,8-0.7,9.6-1.8l1.7,3.9c-2.4,1.4-5.7,2.2-11.3,2.2
		c-8.7,0-14.4-3.6-14.4-9.1c0-5.9,5.2-10.4,13.7-10.4c9.8,0,14,4.9,14,11.6H255.5z M271.2,113.9c0-2.5-3.5-3.7-7.8-3.7
		c-4.3,0-7.8,1.2-7.8,3.7H271.2z"/>
	<path class="st0" d="M298.8,98.4v25.9H293V98.4H298.8z"/>
	<path class="st0" d="M324.1,124.3v-2.6c-2.1,1.9-6.8,3.1-10.6,3.1c-6.8,0-10.3-1.4-10.3-5.6c0-3.6,3.5-5.7,12.7-5.7h8.1
		c-0.1-3-3.6-3.5-7.9-3.5c-3.5,0-8.4,1-10.8,3l-0.1-0.2l-1.3-4c1.9-1.6,7.3-3.2,12.2-3.2c8.6,0,13.4,3.3,13.4,8.2v6.9l0.7,3.5v0.1
		H324.1z M324.1,117.1v-0.3H315c-4.4,0-5.9,0.6-5.9,2.2c0,1.4,1.4,1.9,5.9,1.9C320.3,120.9,324.1,119.4,324.1,117.1z"/>
	<path class="st0" d="M352.4,98.4v25.9h-5.8V98.4H352.4z"/>
	<path class="st0" d="M362.5,117.2c0,2.9,3.6,3.7,8.3,3.7c3.9,0,8-0.7,9.6-1.8l1.7,3.9c-2.4,1.4-5.7,2.2-11.3,2.2
		c-8.7,0-14.4-3.6-14.4-9.1c0-5.9,5.2-10.4,13.7-10.4c9.8,0,14,4.9,14,11.6H362.5z M378.2,113.9c0-2.5-3.5-3.7-7.8-3.7
		c-4.3,0-7.8,1.2-7.8,3.7H378.2z"/>
	<path class="st0" d="M401,105.6c5.3,0,9.6,1.6,12,2.9l-2,4.2c-1.6-1.2-5.9-2.6-10-2.6c-4.8,0-8,2.1-8,5.4c0,3.2,3.2,5.4,8,5.4
		c4.1,0,8.4-0.9,10-2.1l2,4.2c-2.4,1.3-6.7,2.4-12,2.4c-8.1,0-14-3.9-14-9.9S392.9,105.6,401,105.6z"/>
	<path class="st0" d="M427.5,125.5c-4.8,0-8.4-3.2-8.4-7.3v-8.4h-4.4v-4.3h4.6l0.6-4.9h5v4.9h8.9v4.3h-8.9v7.7
		c0,2.6,1.1,3.7,3.8,3.7c1.6,0,3.9-0.6,5.2-1v4.3C432.2,125.1,429.4,125.5,427.5,125.5z"/>
	<path class="st0" d="M462.9,124.3h-5.8V122c-1.7,1.9-4,3.4-8.7,3.4c-9.7,0-11.1-4.9-11.1-11.7V107h5.8v6.6c0,5.1,1.7,7.5,6.2,7.5
		c4.1,0,6.2-1.2,7.8-2.9V107h5.8V124.3z"/>
	<path class="st0" d="M485.6,106.1v5.1c-2-0.4-4.7-0.4-6.8,0.1c-1.5,0.4-3.9,1.6-4.7,3.1l0-0.3v10.2h-5.8V107h5.8v3.2
		c0.9-1.4,2.5-2.7,3.6-3.2C479.8,105.9,483.2,105.5,485.6,106.1z"/>
	<path class="st0" d="M494,117.2c0,2.9,3.6,3.7,8.4,3.7c3.9,0,8-0.7,9.6-1.8l1.7,3.9c-2.4,1.4-5.7,2.2-11.3,2.2
		c-8.7,0-14.4-3.6-14.4-9.1c0-5.9,5.2-10.4,13.7-10.4c9.8,0,14,4.9,14,11.6H494z M509.6,113.9c0-2.5-3.5-3.7-7.8-3.7
		c-4.3,0-7.8,1.2-7.8,3.7H509.6z"/>
	<path class="st0" d="M536.1,117.2c0,2.9,3.6,3.7,8.3,3.7c3.9,0,8-0.7,9.6-1.8l1.7,3.9c-2.4,1.4-5.7,2.2-11.3,2.2
		c-8.7,0-14.4-3.6-14.4-9.1c0-5.9,5.2-10.4,13.7-10.4c9.8,0,14,4.9,14,11.6H536.1z M551.8,113.9c0-2.5-3.5-3.7-7.8-3.7
		c-4.3,0-7.8,1.2-7.8,3.7H551.8z"/>
	<path class="st0" d="M572.4,125.5c-4.8,0-8.4-3.2-8.4-7.3v-8.4h-4.4v-4.3h4.6l0.6-4.9h5v4.9h8.9v4.3h-8.9v7.7
		c0,2.6,1.1,3.7,3.8,3.7c1.6,0,3.9-0.6,5.2-1v4.3C577.1,125.1,574.3,125.5,572.4,125.5z"/>
	<path class="st0" d="M619.8,98.4v25.9H614V122c-1.7,2.1-5.3,3.3-8.9,3.3c-7.1,0-11.8-3.7-11.8-9.6c0-5.6,4.7-9.4,11.8-9.4
		c3.9,0,7.4,1.4,8.9,3.2V98.4H619.8z M614,118.8v-6c-1.2-1.5-4.4-2.4-8-2.4c-4,0-6.7,2.1-6.7,5.4c0,3.2,2.7,5.4,6.7,5.4
		C609.7,121.2,612.9,120.3,614,118.8z"/>
	<path class="st0" d="M629.9,117.2c0,2.9,3.6,3.7,8.4,3.7c3.9,0,8-0.7,9.6-1.8l1.7,3.9c-2.4,1.4-5.7,2.2-11.3,2.2
		c-8.7,0-14.4-3.6-14.4-9.1c0-5.9,5.2-10.4,13.7-10.4c9.8,0,14,4.9,14,11.6H629.9z M645.6,113.9c0-2.5-3.5-3.7-7.8-3.7
		c-4.3,0-7.8,1.2-7.8,3.7H645.6z"/>
	<path class="st0" d="M673.2,98.4v25.9h-5.8V98.4H673.2z"/>
	<path class="st0" d="M684.6,104l-4.6,7.2h-2.3l2-6.1h-1.9V99h6.9V104z"/>
	<path class="st0" d="M692.2,104.1c-1.9,0-3.1-1-3.1-2.8c0-1.9,1.2-2.8,3.1-2.8c1.9,0,3.1,1,3.1,2.8
		C695.3,103.1,694,104.1,692.2,104.1z M689.3,107v17.3h5.8V107H689.3z"/>
	<path class="st0" d="M743.3,117.7v6.6h-5.5v-6.6c0-5.1-1.9-7.5-5.8-7.5c-2.5,0-5,1-6.9,2.6c0.3,1.5,0.5,3.2,0.5,5v6.6h-5.5v-6.6
		c0-5.1-1.8-7.5-5.8-7.5c-3,0-5.9,1.4-8,3.5v10.7h-5.7V107h5.7v2.8c2.1-2.2,5.2-4.2,8.8-4.2c4.8,0,7.5,1.6,8.9,4.2
		c2.1-2.2,5.2-4.2,8.8-4.2C741.4,105.7,743.3,110.9,743.3,117.7z"/>
	<path class="st0" d="M768.2,124.3v-2.6c-2.1,1.9-6.8,3.1-10.6,3.1c-6.8,0-10.3-1.4-10.3-5.6c0-3.6,3.5-5.7,12.7-5.7h8.1
		c-0.1-3-3.6-3.5-7.9-3.5c-3.5,0-8.4,1-10.8,3l-0.1-0.2l-1.3-4c1.9-1.6,7.3-3.2,12.2-3.2c8.6,0,13.4,3.3,13.4,8.2v6.9l0.7,3.5v0.1
		H768.2z M768.2,117.1v-0.3h-9.1c-4.4,0-5.9,0.6-5.9,2.2c0,1.4,1.4,1.9,5.9,1.9C764.4,120.9,768.2,119.4,768.2,117.1z"/>
	<path class="st0" d="M803.1,107v15.7c0,6.2-3.6,8.8-12.5,8.9c-4.7,0.1-7.8-0.3-11.1-1.5v-4.5c4.3,1.6,7.5,2.1,11.1,1.8
		c5.1-0.4,7.1-1.6,7.1-4.3v-0.8c-1.7,1.8-5.1,2.6-8.7,2.6c-6.9,0-11.5-3.4-11.5-9c0-5.8,4.6-9.6,11.5-9.6c3.4,0,6.7,1.1,8.4,3.1
		l0-2.5H803.1z M797.6,119l-0.1-6.2c-1.2-1.3-4.1-2.2-7.6-2.2c-3.9,0-6.5,2.2-6.5,5.4c0,3.2,2.6,5.4,6.5,5.4
		C793.2,121.4,796.2,120.4,797.6,119z"/>
	<path class="st0" d="M810.8,104.1c-1.9,0-3.1-1-3.1-2.8c0-1.9,1.2-2.8,3.1-2.8c1.9,0,3.1,1,3.1,2.8
		C813.8,103.1,812.6,104.1,810.8,104.1z M807.9,107v17.3h5.8V107H807.9z"/>
	<path class="st0" d="M846.2,117.7v6.6h-5.8v-6.6c0-5.1-2.1-7.5-6.6-7.5c-3.4,0-6.6,1.4-8.9,3.3v10.8h-5.8V107h5.8v2.7
		c2.3-2.2,5.7-4.1,9.8-4.1C844.4,105.7,846.2,110.9,846.2,117.7z"/>
	<path class="st0" d="M871,124.3v-2.6c-2.1,1.9-6.8,3.1-10.6,3.1c-6.8,0-10.3-1.4-10.3-5.6c0-3.6,3.5-5.7,12.7-5.7h8.1
		c-0.1-3-3.6-3.5-7.9-3.5c-3.5,0-8.4,1-10.8,3l-0.1-0.2l-1.3-4c1.9-1.6,7.3-3.2,12.2-3.2c8.6,0,13.4,3.3,13.4,8.2v6.9l0.7,3.5v0.1
		H871z M871,117.1v-0.3H862c-4.4,0-5.9,0.6-5.9,2.2c0,1.4,1.4,1.9,5.9,1.9C867.3,120.9,871,119.4,871,117.1z"/>
	<path class="st0" d="M892.3,125.5c-4.8,0-8.4-3.2-8.4-7.3v-8.4h-4.4v-4.3h4.6l0.6-4.9h5v4.9h8.9v4.3h-8.9v7.7
		c0,2.6,1.1,3.7,3.8,3.7c1.6,0,3.9-0.6,5.2-1v4.3C897,125.1,894.2,125.5,892.3,125.5z"/>
	<path class="st0" d="M905.8,104.1c-1.9,0-3.1-1-3.1-2.8c0-1.9,1.2-2.8,3.1-2.8s3.1,1,3.1,2.8C908.8,103.1,907.6,104.1,905.8,104.1z
		 M902.9,107v17.3h5.8V107H902.9z"/>
	<path class="st0" d="M912.9,115.7c0-6.1,5.8-10.1,14.1-10.1c8.1,0,14.1,4,14.1,10.1c0,5.8-6,9.6-14.1,9.6
		C918.7,125.3,912.9,121.5,912.9,115.7z M935,115.7c0-3.4-3.2-5.6-8-5.6c-4.8,0-8,2.2-8,5.6c0,3.3,3.2,5.5,8,5.5
		C931.8,121.2,935,119,935,115.7z"/>
	<path class="st0" d="M972.2,117.7v6.6h-5.8v-6.6c0-5.1-2.1-7.5-6.6-7.5c-3.4,0-6.6,1.4-8.9,3.3v10.8h-5.8V107h5.8v2.7
		c2.3-2.2,5.7-4.1,9.8-4.1C970.4,105.7,972.2,110.9,972.2,117.7z"/>
</g>
</svg>
