<?xml version="1.0" encoding="utf-8"?>
<!-- Generator: Adobe Illustrator 24.2.3, SVG Export Plug-In . SVG Version: 6.00 Build 0)  -->
<svg version="1.1" id="Capa_1" xmlns="http://www.w3.org/2000/svg" xmlns:xlink="http://www.w3.org/1999/xlink" x="0px" y="0px"
	 viewBox="0 0 140.9 140.9" style="enable-background:new 0 0 140.9 140.9;" xml:space="preserve">
<g id="_x34_GDy9I_1_">
	<g>
		<path d="M126.3,54.5C126.3,54.5,126.3,54.5,126.3,54.5c1.1,3.5,0.3,2.7,3.6,3.1c0.5,0.1,1.1,0.1,1.6,0.1c0.9,0,1.1,0.4,1.3,1.2
			c1.2,5.6,1.3,11.2,0.8,16.9c-0.8,7.9-2.6,15.5-5.1,23c0,0.1-0.1,0.2-0.2,0.4c-0.3-1.1-0.5-2.1-0.7-3.1c-0.8-3.1-2-6.1-3.9-8.8
			c-0.3-0.4-0.3-1-0.3-1.5c0.5-3,1.2-5.9,1.5-8.8c0.5-4.8,0.7-9.7-0.1-14.6c-0.4-2.4-1.2-4.8-1.8-7.1c-0.1-0.6-0.5-1-1.1-1.1
			c-1-0.3-1.4-1.3-1.8-2.1c-1.3-2.8-2.6-5.6-4.1-8.3c-4.4-7.9-10.9-13.8-18.8-18.1c-9.2-5-18.9-7.4-29.3-6.9
			c-13.5,0.7-25.5,5.6-35.4,14.9c-5.2,4.9-8.8,10.9-11.5,17.4c-0.3,0.7-0.6,1.4-1,2.1c-0.3,0.4-0.7,0.8-1.1,1
			c-0.7,0.2-1,0.6-1.2,1.2c-1.2,3.8-2.1,7.7-2.3,11.8c-0.2,6.2,0.5,12.4,1.9,18.4c0.2,0.7,0.1,1.3-0.4,2c-2.2,3.1-3.4,6.6-4.2,10.2
			c-0.1,0.4-0.2,0.9-0.5,1.3c-0.5-1.5-1-2.9-1.4-4.4c-2.6-8.7-4.1-17.5-4-26.5c0-3.2,0.4-6.4,1.1-9.5c0.1-0.6,0.3-0.9,1-0.9
			c1.2-0.1,2.5-0.2,3.7-0.3c0.6,0,1-0.3,1.2-0.9c0.2-0.7,0.5-1.5,0.7-2.2c-2.1-1.1-3.7-2.7-5.4-4.2c-0.9-0.8-1.1-1.7-0.7-2.8
			c0.5-1.3,1-2.7,1.6-4c4.2-9.1,10.1-17,18-23.2c6.8-5.4,14.5-9.1,22.8-11.6c7.9-2.4,16-3.3,24.2-2.7c13.7,1,26.1,5.7,37,13.9
			c8.4,6.3,14.5,14.6,18.8,24.1c0.5,1.2,1,2.5,1.5,3.7c0.3,0.9,0.2,1.7-0.6,2.3c-0.9,0.8-1.7,1.6-2.6,2.4
			C128.3,53.1,127.3,53.8,126.3,54.5z"/>
		<path d="M107.7,84c-0.3,1.6-0.8,3.9-1.3,6.3c-2.7,12.5-6.2,24.8-10.3,36.9c-0.3,1-0.8,2-1.3,2.9c-0.6,1.2-1.5,1.6-2.8,1.3
			c-1.7-0.5-3.3-1.1-4.9-1.8c-1.4-0.6-1.9-1.8-1.5-3.3c0.9-3,1.9-6,2.8-9c3.3-10.5,6.1-21.1,8.3-31.9c0.3-1.3,0.6-2.6,1-3.8
			c0.5-1.7,1.6-2.4,3.3-2.1c1.5,0.2,2.9,0.5,4.4,0.8C107.2,80.6,107.8,81.5,107.7,84z"/>
		<path d="M39.7,79.3c1.7,0,2.7,0.6,3,2c0.7,2.6,1.2,5.1,1.8,7.7c2.5,11.1,5.5,22,9.1,32.8c0.5,1.5,0.9,3,1.3,4.5
			c0.4,1.5,0,2.5-1.5,3.2c-1.4,0.7-2.9,1.2-4.4,1.7c-1.7,0.5-3.2-0.2-3.8-2c-1.8-5.7-3.8-11.3-5.4-17c-2.6-8.8-4.8-17.7-6.6-26.7
			c-0.1-0.7-0.3-1.5-0.4-2.2c-0.2-1.6,0.6-2.8,2.1-3.2c1.1-0.3,2.2-0.5,3.3-0.7C38.9,79.4,39.4,79.3,39.7,79.3z"/>
		<path d="M117.8,86.9c1.6,1.2,2.8,2.8,3.7,4.4c1.8,3.2,2.7,6.6,3,10.2c0.6,9.4-2.1,17.8-8.3,24.9c-2.6,3-5.9,5.1-9.8,6.1
			c-0.2,0.1-0.4,0.1-0.6,0.1c-0.1,0-0.2,0-0.6,0C110.3,117.6,114.5,102.4,117.8,86.9z"/>
		<path d="M23,86.9c3.1,15.5,7.4,30.7,12.5,45.9c-0.6-0.1-0.9-0.2-1.2-0.2c-5.2-1.5-9.1-4.7-12.1-9.1c-5.4-8-7.3-16.8-5.3-26.3
			c0.8-3.7,2.5-7,5.3-9.7c0.2-0.2,0.4-0.3,0.6-0.5C22.8,86.9,22.9,86.9,23,86.9z"/>
		<path d="M115.5,86c-0.3,1.4-0.6,3.4-1.1,5.3c-2.9,13.1-6.4,26-10.8,38.7c-0.2,0.6-0.4,1.1-0.7,1.7c-1.2,2.2-4,1.9-5.2,0.2
			c-0.2-0.3-0.2-1-0.1-1.5c0.5-1.8,1.1-3.5,1.7-5.2c4-12,7.2-24.2,9.9-36.5c0.4-1.7,0.7-3.4,1.1-5c0.2-0.9,0.5-1.2,1.5-1.2
			c0.4,0,0.8,0,1.3,0.1C114.6,82.7,115.5,83.8,115.5,86z"/>
		<path d="M28.7,82.3c1,0,1.6,0.4,1.8,1.4c3,15.5,7.3,30.7,12.3,45.8c0.2,0.5,0.3,1.1,0.4,1.6c0,0.3,0,0.7-0.2,0.9
			c-1.3,1.5-4.1,2.1-5.2-0.4c-0.8-1.8-1.4-3.8-2.1-5.7c-4.1-12.4-7.5-25-10.1-37.9c-0.1-0.6-0.2-1.3-0.3-1.9
			C25,83.8,26.3,82.3,28.7,82.3z"/>
	</g>
</g>
</svg>
